<?xml version="1.0" standalone="no"?>
<!DOCTYPE svg PUBLIC "-//W3C//DTD SVG 20010904//EN"
 "http://www.w3.org/TR/2001/REC-SVG-20010904/DTD/svg10.dtd">
<svg version="1.0" xmlns="http://www.w3.org/2000/svg"
 width="512.000000pt" height="512.000000pt" viewBox="0 0 512.000000 512.000000"
 preserveAspectRatio="xMidYMid meet">
<metadata>
Created by potrace 1.11, written by Peter Selinger 2001-2013
</metadata>
<g transform="translate(0.000000,512.000000) scale(0.100000,-0.100000)"
fill="#000000" stroke="none">
<path d="M875 5114 c-160 -32 -224 -52 -330 -105 -265 -134 -462 -393 -524
-689 -19 -92 -19 -140 -20 -1755 0 -1773 -1 -1725 49 -1875 29 -87 93 -213
142 -280 134 -183 387 -349 584 -384 16 -3 52 -10 79 -15 31 -6 673 -10 1705
-10 1758 0 1704 -2 1860 45 78 24 226 98 290 147 154 116 262 256 338 437 69
168 70 186 71 1005 1 619 -1 727 -12 710 -8 -11 -40 -67 -73 -125 -32 -58 -62
-106 -66 -108 -4 -2 -8 -8 -8 -13 0 -5 -32 -64 -71 -132 -40 -67 -114 -196
-167 -287 -125 -217 -226 -392 -297 -515 -32 -55 -78 -134 -102 -176 -48 -86
-94 -131 -162 -161 -62 -27 -153 -26 -219 2 -90 39 -91 41 -412 600 -68 118
-129 221 -135 228 -10 11 -19 2 -49 -50 -21 -34 -41 -70 -46 -78 -5 -8 -22
-37 -38 -65 -57 -101 -255 -442 -290 -500 -45 -76 -96 -121 -169 -150 -99 -41
-214 -19 -294 56 -42 39 -35 27 -416 689 -56 96 -159 274 -229 395 -70 121
-138 240 -152 264 -14 25 -38 68 -55 95 -98 166 -137 244 -146 289 -10 55 3
135 29 188 27 52 103 115 162 135 64 21 158 15 213 -14 82 -42 102 -69 255
-337 9 -17 50 -87 90 -155 40 -69 86 -149 103 -178 16 -30 55 -97 86 -150 31
-54 60 -104 64 -112 4 -8 13 -24 20 -35 40 -66 115 -197 138 -240 15 -27 31
-51 35 -52 7 -2 279 457 340 573 10 19 -10 60 -178 350 -104 181 -239 414
-299 518 -118 204 -139 256 -132 329 18 218 269 337 443 210 54 -41 61 -50
195 -283 65 -113 148 -257 185 -320 37 -63 80 -138 96 -167 l28 -51 19 31 c18
29 336 580 378 654 59 104 112 152 194 175 142 41 283 -29 339 -166 28 -68 27
-154 -1 -213 -9 -21 -97 -175 -194 -343 -97 -168 -227 -393 -289 -500 -62
-107 -113 -199 -113 -205 0 -5 68 -127 152 -269 83 -143 151 -262 151 -265 0
-3 9 -17 19 -30 l18 -23 39 68 c21 38 41 74 43 79 2 6 7 12 10 15 3 3 13 19
22 35 9 17 118 206 241 420 124 215 235 406 245 425 11 19 120 208 242 420
l223 384 -5 391 c-4 328 -7 399 -21 450 -31 109 -47 149 -87 228 -139 275
-386 461 -699 528 -80 17 -177 18 -1750 17 -916 0 -1674 -2 -1685 -4z m638
-1473 c51 -23 122 -97 144 -149 22 -54 25 -144 6 -203 -22 -68 -88 -140 -154
-169 -217 -93 -442 90 -395 320 37 179 232 277 399 201z"/>
</g>
</svg>
